HIERARCHY
ROOT hips
{
    OFFSET 0 0 0
    CHANNELS 6 Xposition Yposition Zposition Zrotation Xrotation Yrotation
    JOINT spine
    {
        OFFSET -2.04891e-06 11.8934 0.353977
        CHANNELS 3 Zrotation Xrotation Yrotation
        JOINT spine1
        {
            OFFSET -1.30385e-06 18.6411 -1.28445
            CHANNELS 3 Zrotation Xrotation Yrotation
            JOINT spine2
            {
                OFFSET 0.00375062 12.8712 -1.94827
                CHANNELS 3 Zrotation Xrotation Yrotation
                JOINT neck
                {
                    OFFSET 0.0043476 14.8929 -2.30486
                    CHANNELS 3 Zrotation Xrotation Yrotation
                    JOINT head_JNT
                    {
                        OFFSET 0.00232523 9.1392 0.0646695
                        CHANNELS 3 Zrotation Xrotation Yrotation
                        End Site
                        {
                            OFFSET 0 0 0
                        }
                    }
                }
                JOINT l_shoulder
                {
                    OFFSET 3.67288 11.81 0.717765
                    CHANNELS 3 Zrotation Xrotation Yrotation
                    JOINT l_arm
                    {
                        OFFSET 13.2669 -1.17472 -7.56563
                        CHANNELS 3 Zrotation Xrotation Yrotation
                        JOINT l_forearm
                        {
                            OFFSET 29.4417 -0.00754595 0.00679344
                            CHANNELS 3 Zrotation Xrotation Yrotation
                            JOINT l_hand
                            {
                                OFFSET 26.1766 -0.00669956 0.00605285
                                CHANNELS 3 Zrotation Xrotation Yrotation
                                JOINT l_handThumb1
                                {
                                    OFFSET 4.6199 -2.10845 2.63465
                                    CHANNELS 3 Zrotation Xrotation Yrotation
                                    JOINT l_handThumb2
                                    {
                                        OFFSET 2.67276 -1.18767 2.35514
                                        CHANNELS 3 Zrotation Xrotation Yrotation
                                        JOINT l_handThumb3
                                        {
                                            OFFSET 2.97689 -2.05945 1.56059
                                            CHANNELS 3 Zrotation Xrotation Yrotation
                                            End Site
                                            {
                                                OFFSET 0 0 0
                                            }
                                        }
                                    }
                                }
                                JOINT l_handIndex1
                                {
                                    OFFSET 11.701 -1.51974 2.16506
                                    CHANNELS 3 Zrotation Xrotation Yrotation
                                    JOINT l_handIndex2
                                    {
                                        OFFSET 3.74603 -1.80552 -0.133665
                                        CHANNELS 3 Zrotation Xrotation Yrotation
                                        JOINT l_handIndex3
                                        {
                                            OFFSET 2.60652 -1.99621 -0.259069
                                            CHANNELS 3 Zrotation Xrotation Yrotation
                                            End Site
                                            {
                                                OFFSET 0 0 0
                                            }
                                        }
                                    }
                                }
                                JOINT l_handMiddle1
                                {
                                    OFFSET 11.8815 -1.2975 -0.45275
                                    CHANNELS 3 Zrotation Xrotation Yrotation
                                    JOINT l_handMiddle2
                                    {
                                        OFFSET 4.11872 -1.77224 -0.415168
                                        CHANNELS 3 Zrotation Xrotation Yrotation
                                        JOINT l_handMiddle3
                                        {
                                            OFFSET 2.87592 -2.05374 -0.220393
                                            CHANNELS 3 Zrotation Xrotation Yrotation
                                            End Site
                                            {
                                                OFFSET 0 0 0
                                            }
                                        }
                                    }
                                }
                                JOINT l_handRing1
                                {
                                    OFFSET 11.1483 -1.88248 -2.63091
                                    CHANNELS 3 Zrotation Xrotation Yrotation
                                    JOINT l_handRing2
                                    {
                                        OFFSET 3.87625 -1.72722 -0.687782
                                        CHANNELS 3 Zrotation Xrotation Yrotation
                                        JOINT l_handRing3
                                        {
                                            OFFSET 2.66625 -2.03094 -0.385118
                                            CHANNELS 3 Zrotation Xrotation Yrotation
                                            End Site
                                            {
                                                OFFSET 0 0 0
                                            }
                                        }
                                    }
                                }
                                JOINT l_handPinky1
                                {
                                    OFFSET 9.83148 -2.51061 -4.33061
                                    CHANNELS 3 Zrotation Xrotation Yrotation
                                    JOINT l_handPinky2
                                    {
                                        OFFSET 3.07645 -1.21475 -1.03341
                                        CHANNELS 3 Zrotation Xrotation Yrotation
                                        JOINT l_handPinky3
                                        {
                                            OFFSET 2.36694 -1.51944 -0.694968
                                            CHANNELS 3 Zrotation Xrotation Yrotation
                                            End Site
                                            {
                                                OFFSET 0 0 0
                                            }
                                        }
                                    }
                                }
                            }
                        }
                    }
                }
                JOINT r_shoulder
                {
                    OFFSET -3.66718 11.812 0.71607
                    CHANNELS 3 Zrotation Xrotation Yrotation
                    JOINT r_arm
                    {
                        OFFSET -13.2639 -1.16794 -7.57171
                        CHANNELS 3 Zrotation Xrotation Yrotation
                        JOINT r_forearm
                        {
                            OFFSET -29.4418 0.00754595 -0.00678822
                            CHANNELS 3 Zrotation Xrotation Yrotation
                            JOINT r_hand
                            {
                                OFFSET -26.1767 0.00669956 -0.0060305
                                CHANNELS 3 Zrotation Xrotation Yrotation
                                JOINT r_handThumb1
                                {
                                    OFFSET -4.62228 -2.10619 2.63254
                                    CHANNELS 3 Zrotation Xrotation Yrotation
                                    JOINT r_handThumb2
                                    {
                                        OFFSET -2.6743 -1.18634 2.35392
                                        CHANNELS 3 Zrotation Xrotation Yrotation
                                        JOINT r_handThumb3
                                        {
                                            OFFSET -2.97864 -2.05786 1.55921
                                            CHANNELS 3 Zrotation Xrotation Yrotation
                                            End Site
                                            {
                                                OFFSET 0 0 0
                                            }
                                        }
                                    }
                                }
                                JOINT r_handIndex1
                                {
                                    OFFSET -11.7205 -1.5767 2.17915
                                    CHANNELS 3 Zrotation Xrotation Yrotation
                                    JOINT r_handIndex2
                                    {
                                        OFFSET -3.74622 -1.8055 -0.133739
                                        CHANNELS 3 Zrotation Xrotation Yrotation
                                        JOINT r_handIndex3
                                        {
                                            OFFSET -2.6066 -1.99612 -0.259058
                                            CHANNELS 3 Zrotation Xrotation Yrotation
                                            End Site
                                            {
                                                OFFSET 0 0 0
                                            }
                                        }
                                    }
                                }
                                JOINT r_handMiddle1
                                {
                                    OFFSET -11.8818 -1.29145 -0.458179
                                    CHANNELS 3 Zrotation Xrotation Yrotation
                                    JOINT r_handMiddle2
                                    {
                                        OFFSET -4.11954 -1.77027 -0.417371
                                        CHANNELS 3 Zrotation Xrotation Yrotation
                                        JOINT r_handMiddle3
                                        {
                                            OFFSET -2.87693 -2.05227 -0.222373
                                            CHANNELS 3 Zrotation Xrotation Yrotation
                                            End Site
                                            {
                                                OFFSET 0 0 0
                                            }
                                        }
                                    }
                                }
                                JOINT r_handRing1
                                {
                                    OFFSET -11.1668 -1.9393 -2.61672
                                    CHANNELS 3 Zrotation Xrotation Yrotation
                                    JOINT r_handRing2
                                    {
                                        OFFSET -3.87599 -1.72703 -0.687786
                                        CHANNELS 3 Zrotation Xrotation Yrotation
                                        JOINT r_handRing3
                                        {
                                            OFFSET -2.66626 -2.03099 -0.385113
                                            CHANNELS 3 Zrotation Xrotation Yrotation
                                            End Site
                                            {
                                                OFFSET 0 0 0
                                            }
                                        }
                                    }
                                }
                                JOINT r_handPinky1
                                {
                                    OFFSET -9.84935 -2.56708 -4.31608
                                    CHANNELS 3 Zrotation Xrotation Yrotation
                                    JOINT r_handPinky2
                                    {
                                        OFFSET -3.07649 -1.21487 -1.03342
                                        CHANNELS 3 Zrotation Xrotation Yrotation
                                        JOINT r_handPinky3
                                        {
                                            OFFSET -2.36686 -1.51908 -0.695062
                                            CHANNELS 3 Zrotation Xrotation Yrotation
                                            End Site
                                            {
                                                OFFSET 0 0 0
                                            }
                                        }
                                    }
                                }
                            }
                        }
                    }
                }
            }
        }
    }
    JOINT l_upleg
    {
        OFFSET 8.73919 -0.000184774 -5.00586e-06
        CHANNELS 3 Zrotation Xrotation Yrotation
        JOINT l_leg
        {
            OFFSET 5.05774 -40.9824 -1.23411
            CHANNELS 3 Zrotation Xrotation Yrotation
            JOINT l_foot
            {
                OFFSET 2.77379 -38.429 -6.08625
                CHANNELS 3 Zrotation Xrotation Yrotation
                JOINT l_toebase
                {
                    OFFSET 0.807787 -13.0672 15.9427
                    CHANNELS 3 Zrotation Xrotation Yrotation
                    End Site
                    {
                        OFFSET 0 0 0
                    }
                }
            }
        }
    }
    JOINT r_upleg
    {
        OFFSET -8.7392 0 0
        CHANNELS 3 Zrotation Xrotation Yrotation
        JOINT r_leg
        {
            OFFSET -5.05777 -40.9826 -1.23412
            CHANNELS 3 Zrotation Xrotation Yrotation
            JOINT r_foot
            {
                OFFSET -2.7738 -38.4291 -6.08627
                CHANNELS 3 Zrotation Xrotation Yrotation
                JOINT r_toebase
                {
                    OFFSET -0.807783 -13.0671 15.9426
                    CHANNELS 3 Zrotation Xrotation Yrotation
                    End Site
                    {
                        OFFSET 0 0 0
                    }
                }
            }
        }
    }
}
MOTION
Frames: 5
Frame Time: 0.020000
-3.0754 89.5596 4.05718 3.34009 4.32502 -45.4228 -1.60315 -0.4876 -3.76817 2.13443e-07 -9.33815e-08 0.0395647 -0.569798 -0.0392315 -2.72026 8.71496 -6.41575 -4.55694 -17.7537 5.9331 0.193827 -0 0 0 -32.9372 34.5562 -90.1919 -2.78468e-06 1.08394e-06 -42.5372 0.0572809 -0.124064 -0.096934 4.10661 20.7048 -22.2077 -0 0 0 -11.5085 -0.115204 1.1426 -18.1488 5.33853 0.852251 -23.3776 6.78836 1.40664 -15.5441 4.59635 0.625573 -21.2094 4.13846 0.776317 -27.2995 5.24098 1.27286 -18.1711 3.56899 0.570611 -24.1833 -2.34585 -0.50202 -31.1038 -2.95722 -0.823289 -20.7255 -2.0268 -0.369035 -26.5372 -5.10614 -1.20462 -34.176 -6.41015 -1.97231 -22.7302 -4.41894 -0.888227 -0 0 0 -96.9478 41.152 105.991 5.60134e-06 5.53028e-06 114.326 0.00252322 0.02198 0 -4.10661 20.7048 22.2077 -0 0 0 16.8952 0.247354 1.6655 26.7326 7.68554 -1.829 34.5009 9.64392 -3.00101 22.8771 6.65217 -1.34811 31.1994 5.91495 -1.65323 40.2018 7.35598 -2.69482 26.7172 5.13807 -1.2214 35.5271 -3.32565 1.06605 45.7086 -4.09424 1.72551 30.4427 -2.90057 0.788322 39.0735 -7.185 2.55251 50.3949 -8.75988 4.12786 33.4451 -6.29018 1.89128 -3.03982 -13.0265 8.0583 -4.32688 39.5815 3.43064 1.71709 -2.41628 -1.99755 -0.323487 -30.6667 -1.17368 -29.1445 -41.4197 -41.9142 2.75903 61.4523 -2.04288 1.61486 3.22117 9.70294 -8.5361e-07 -0.0883861 0 
-3.61691 90.2123 3.68674 3.06821 3.42992 -48.2542 -1.20891 -0.129913 -3.32167 -4.59102e-15 -1.53412e-07 0 -0.366255 0.0841494 -2.41089 9.27758 -5.93226 -5.80504 -19.1074 4.67901 0 -1.94126e-18 -5.33608e-08 0 -29.6999 39.1638 -89.8059 -8.1327e-07 -1.03547e-05 -27.9064 0.0304428 -0.128549 -0.0884919 4.10661 20.7048 -22.2077 -0 0 0 -13.0486 -0.147962 1.2942 -20.5946 6.02391 1.09574 -26.5414 7.63516 1.80271 -17.6352 5.19317 0.805024 -24.0598 4.66148 0.993069 -30.9773 5.87731 1.62987 -20.6107 4.02716 0.732749 -27.4243 -2.63704 -0.642851 -35.2753 -3.30519 -1.05126 -23.5021 -2.28365 -0.474777 -30.1111 -5.72963 -1.54253 -38.7944 -7.14226 -2.51731 -25.7867 -4.97247 -1.13917 -1.94126e-18 -5.33608e-08 0 -86.602 60.5643 126.371 -1.43948e-05 -1.10429e-05 74.9868 0.00238235 0.022516 0 -4.10661 20.7048 22.2077 -0 0 0 17.5533 0.266848 1.72777 27.7873 7.96158 -1.97231 35.8716 9.97022 -3.23475 23.7769 6.89658 -1.45317 32.424 6.12078 -1.78087 41.7857 7.59103 -2.90101 27.764 5.32266 -1.31579 36.9145 -3.43718 1.14806 47.4956 -4.21636 1.85535 31.6309 -3.0021 0.851332 40.6123 -7.41747 2.74775 52.3888 -9.00278 4.43558 34.759 -6.50507 2.03751 -0.661444 -13.053 10.8563 -3.34574 37.9101 2.7217 0.708496 -1.59312 -1.63849 -0.455576 -30.9091 -1.89252 -26.0489 -42.7083 -39.6283 1.60612 66.0541 -1.25178 0.802257 1.77906 4.9802 7.67373e-06 -0.0653974 0 
-4.65489 90.0788 3.88613 2.54864 2.62049 -52.691 -0.729881 0.163267 -2.86572 -0 0 0.0395647 -0.161193 0.180306 -2.10441 9.1493 -4.62437 -6.37405 -19.6584 3.2278 -0.209357 2.13443e-07 5.20268e-07 0.0559529 -35.8422 43.9636 -79.5584 2.32357e-06 3.02979e-06 -21.8397 0.0100278 -0.130719 0 4.10661 20.7048 -22.2077 -0 0 0 -14.3149 -0.177921 1.41718 -22.6104 6.57936 1.31698 -29.1522 8.3143 2.16527 -19.3577 5.67879 0.969136 -26.4069 5.08299 1.19418 -34.0077 6.38262 1.95357 -22.6187 4.39849 0.881149 -30.0904 -2.87021 -0.773286 -38.7076 -3.57831 -1.25864 -25.7861 -2.49086 -0.569237 -33.0556 -6.22581 -1.84901 -42.6029 -7.70998 -3.01012 -28.3039 -5.41713 -1.36599 2.13443e-07 5.20268e-07 0.0559529 -84.848 72.9872 144.196 4.40257e-06 8.76822e-06 38.4399 0.00251325 0.0230096 0 -4.10661 20.7048 22.2077 -0 0 0 17.6546 0.269913 1.73771 27.9497 8.00383 -1.99481 36.0827 10.0199 -3.27132 23.9154 6.93405 -1.47031 32.6125 6.15222 -1.80141 42.0296 7.6267 -2.93348 27.9251 5.35091 -1.33176 37.128 -3.45417 1.16027 47.7707 -4.2348 1.8759 31.8138 -3.01762 0.860477 40.8492 -7.45278 2.77891 52.6959 -9.03921 4.48386 34.9613 -6.53784 2.06119 1.77301 -12.6887 12.461 -2.47104 37.3257 2.05549 0.255574 -0.686598 -1.09001 -0.524407 -34.9706 -2.64882 -20.7546 -43.7919 -34.456 5.04997e-06 69.2265 0 0.45716 0.289376 0.0395647 1.70736e-06 -0.00477003 0 
-5.93491 89.2226 4.20984 1.91403 1.88167 -59.0898 -0.245262 0.313431 -2.44347 -1.06722e-07 2.66804e-07 0 0.0396048 0.223525 -1.81784 8.21119 -2.61346 -5.55709 -19.2994 1.85006 -0.4316 2.13443e-07 2.66804e-08 0 -50.2271 44.5939 -59.3352 -6.37853e-06 -5.67515e-06 -22.9394 0.00141172 -0.140542 -0.104693 4.10661 20.7048 -22.2077 -0 0 0 -15.34 -0.204164 1.51643 -24.2457 7.02318 1.51074 -31.2724 8.85171 2.48192 -20.7544 6.06825 1.11134 -28.3093 5.41807 1.36771 -36.4654 6.7788 2.23535 -24.2459 4.69521 1.00948 -32.2497 -3.05447 -0.884695 -41.488 -3.7901 -1.43583 -27.6357 -2.65575 -0.653717 -35.4436 -6.61562 -2.11628 -45.6935 -8.14502 -3.43634 -30.3445 -5.76956 -1.56569 2.13443e-07 2.66804e-08 0 -36.3252 86.9503 107.765 2.48182e-06 3.7157e-06 12.8319 0.00095504 0.0225176 0.0884693 -4.10661 20.7048 22.2077 -0 0 0 17.6587 0.270038 1.73816 27.9564 8.00555 -1.99559 36.0914 10.022 -3.27276 23.9211 6.93557 -1.47137 32.6202 6.1535 -1.80184 42.0395 7.62815 -2.93481 27.9317 5.35206 -1.33117 37.1367 -3.45486 1.16162 47.7819 -4.23555 1.87674 31.8213 -3.01825 0.860477 40.8589 -7.45421 2.77975 52.7084 -9.04069 4.4856 34.9696 -6.53918 2.06119 5.32762 -13.8217 11.1563 -5.41906 42.3001 4.43152 1.49996 -1.57212 -1.28327 -0.828804 -30.8386 -3.36428 -14.0243 -42.0983 -26.3581 5.89885e-06 66.4977 0 0.430049 0.100259 0 -1.35679e-09 0.0910524 0 
-7.27042 88.0281 4.37264 1.28281 1.19789 -67.3353 0.087548 0.315095 -1.91472 -1.06722e-07 -8.00413e-08 0 0.173825 0.216326 -1.44236 6.65644 -0.376714 -3.18401 -18.1797 0.86525 -0.573347 -1.06722e-07 3.18366e-15 0 -64.8606 40.2805 -36.2355 -5.77183e-06 1.20227e-05 -28.3218 0.00542436 -0.121968 -0.0685478 4.10661 20.7048 -22.2077 -0 0 0 -16.2616 -0.229267 1.60519 -25.7185 7.41733 1.69531 -33.1838 9.32464 2.78425 -22.0116 6.41531 1.24927 -30.0213 5.71424 1.53337 -38.6783 7.12442 2.50328 -25.7099 4.95873 1.13227 -34.1916 -3.21642 -0.989911 -43.9886 -3.9729 -1.60519 -29.2989 -2.80163 -0.733817 -37.5935 -6.95634 -2.37029 -48.4776 -8.51616 -3.83979 -32.1811 -6.08018 -1.75564 -1.06722e-07 3.18366e-15 0 55.8607 81.7505 20.0152 8.85799e-06 -9.87106e-08 0.104678 0.014156 0.0197908 0.0395647 -4.10661 20.7048 22.2077 -0 0 0 17.6128 0.268645 1.73411 27.8826 7.98638 -1.98576 35.9955 9.99942 -3.25573 23.8582 6.91857 -1.4639 32.5346 6.13924 -1.7927 41.9288 7.61198 -2.92037 27.8585 5.33924 -1.32528 37.0398 -3.44716 1.15554 47.657 -4.22719 1.86754 31.7383 -3.01121 0.856831 40.7513 -7.4382 2.76592 52.569 -9.02419 4.46391 34.8778 -6.52431 2.05168 5.26574 -14.413 8.85957 -0.958084 45.5314 0.797208 0.420469 1.32728 0.118694 -1.14074 -40.704 -4.51205 -6.60783 -39.967 -16.3331 -5.86914e-06 62.9069 0 0.341009 -0.0507118 0 3.42943e-06 0.202354 0 
